<?xml version="1.0" encoding="UTF-8"?>
<svg id="Warstwa_2" data-name="Warstwa 2" xmlns="http://www.w3.org/2000/svg" xmlns:xlink="http://www.w3.org/1999/xlink" viewBox="0 0 200.04 200">
  <defs>
    <style>
      .cls-1 {
        fill: url(#Gradient_bez_nazwy_19-6);
      }

      .cls-2 {
        fill: #fff;
      }

      .cls-3 {
        fill: url(#Gradient_bez_nazwy_19-4);
      }

      .cls-4 {
        fill: url(#Gradient_bez_nazwy_18);
      }

      .cls-5 {
        fill: url(#Gradient_bez_nazwy_19);
      }

      .cls-6 {
        fill: #273252;
      }

      .cls-7 {
        fill: url(#Gradient_bez_nazwy_19-5);
      }

      .cls-8 {
        fill: #9abef4;
      }

      .cls-9 {
        fill: #5873bf;
      }

      .cls-10 {
        fill: url(#Gradient_bez_nazwy_19-10);
      }

      .cls-11 {
        fill: url(#Gradient_bez_nazwy_19-8);
      }

      .cls-12 {
        fill: url(#Gradient_bez_nazwy_19-9);
      }

      .cls-13 {
        fill: url(#Gradient_bez_nazwy_19-3);
      }

      .cls-14 {
        fill: url(#Gradient_bez_nazwy_19-2);
      }

      .cls-15 {
        clip-path: url(#clippath);
      }

      .cls-16 {
        fill: url(#Gradient_bez_nazwy_3-3);
      }

      .cls-17 {
        fill: none;
      }

      .cls-18 {
        fill: url(#Gradient_bez_nazwy_3-2);
      }

      .cls-19 {
        fill: #1be4ff;
      }

      .cls-20 {
        fill: url(#Gradient_bez_nazwy_3);
      }

      .cls-21 {
        fill: url(#Gradient_bez_nazwy_19-7);
      }

      .cls-22 {
        opacity: .1;
      }

      .cls-22, .cls-23 {
        isolation: isolate;
      }

      .cls-24 {
        fill: url(#Gradient_bez_nazwy_19-12);
      }

      .cls-25 {
        fill: #2c2b2d;
      }

      .cls-26 {
        fill: #6f8dce;
      }

      .cls-27 {
        fill: url(#Gradient_bez_nazwy_19-13);
      }

      .cls-23 {
        opacity: .5;
      }

      .cls-28 {
        fill: url(#Gradient_bez_nazwy_19-11);
      }
    </style>
    <clipPath id="clippath">
      <path class="cls-17" d="m162.2,200H37.87c-20.89,0-37.83-16.94-37.83-37.83V37.83C.04,16.94,16.98,0,37.87,0h124.33c20.89,0,37.83,16.94,37.83,37.83v124.33c.02,20.75-16.94,37.82-37.83,37.83Z"/>
    </clipPath>
    <linearGradient id="Gradient_bez_nazwy_3" data-name="Gradient bez nazwy 3" x1="-6.47" y1="6642.61" x2="42.02" y2="6642.61" gradientTransform="translate(0 6821.03) scale(1 -1)" gradientUnits="userSpaceOnUse">
      <stop offset="0" stop-color="#9abef4"/>
      <stop offset=".18" stop-color="#89aae6"/>
      <stop offset=".52" stop-color="#6e8cd1"/>
      <stop offset=".8" stop-color="#5e7ac4"/>
      <stop offset="1" stop-color="#5873bf"/>
    </linearGradient>
    <linearGradient id="Gradient_bez_nazwy_3-2" data-name="Gradient bez nazwy 3" x1="-6.47" y1="6651.98" x2="42.02" y2="6651.98" xlink:href="#Gradient_bez_nazwy_3"/>
    <linearGradient id="Gradient_bez_nazwy_3-3" data-name="Gradient bez nazwy 3" x1="-6.45" y1="6632" x2="41.98" y2="6632" xlink:href="#Gradient_bez_nazwy_3"/>
    <linearGradient id="Gradient_bez_nazwy_19" data-name="Gradient bez nazwy 19" x1="43.74" y1="6658.77" x2="100.02" y2="6658.77" gradientTransform="translate(0 6821.03) scale(1 -1)" gradientUnits="userSpaceOnUse">
      <stop offset="0" stop-color="#5873bf"/>
      <stop offset="0" stop-color="#5a75c1"/>
      <stop offset=".07" stop-color="#7190d3"/>
      <stop offset=".13" stop-color="#83a4e2"/>
      <stop offset=".21" stop-color="#90b3ec"/>
      <stop offset=".3" stop-color="#98bbf2"/>
      <stop offset=".44" stop-color="#9abef4"/>
      <stop offset=".63" stop-color="#98bcf2"/>
      <stop offset=".75" stop-color="#91b3ed"/>
      <stop offset=".84" stop-color="#84a5e3"/>
      <stop offset=".92" stop-color="#7392d5"/>
      <stop offset=".99" stop-color="#5d78c3"/>
      <stop offset="1" stop-color="#5873bf"/>
    </linearGradient>
    <linearGradient id="Gradient_bez_nazwy_19-2" data-name="Gradient bez nazwy 19" x1="43.74" y1="6637.34" x2="100.02" y2="6637.34" xlink:href="#Gradient_bez_nazwy_19"/>
    <linearGradient id="Gradient_bez_nazwy_19-3" data-name="Gradient bez nazwy 19" x1="43.74" y1="6663.53" x2="100.02" y2="6663.53" xlink:href="#Gradient_bez_nazwy_19"/>
    <linearGradient id="Gradient_bez_nazwy_19-4" data-name="Gradient bez nazwy 19" x1="43.74" y1="6668.48" x2="100.02" y2="6668.48" xlink:href="#Gradient_bez_nazwy_19"/>
    <linearGradient id="Gradient_bez_nazwy_19-5" data-name="Gradient bez nazwy 19" x1="43.74" y1="6659.01" x2="100.02" y2="6659.01" xlink:href="#Gradient_bez_nazwy_19"/>
    <linearGradient id="Gradient_bez_nazwy_19-6" data-name="Gradient bez nazwy 19" x1="43.74" y1="6659.5" x2="100.02" y2="6659.5" xlink:href="#Gradient_bez_nazwy_19"/>
    <linearGradient id="Gradient_bez_nazwy_19-7" data-name="Gradient bez nazwy 19" x1="62.74" y1="6639.38" x2="143" y2="6639.38" xlink:href="#Gradient_bez_nazwy_19"/>
    <linearGradient id="Gradient_bez_nazwy_19-8" data-name="Gradient bez nazwy 19" x1="62.74" y1="6632.5" x2="143" y2="6632.5" xlink:href="#Gradient_bez_nazwy_19"/>
    <linearGradient id="Gradient_bez_nazwy_19-9" data-name="Gradient bez nazwy 19" x1="62.74" y1="6640.84" x2="143" y2="6640.84" xlink:href="#Gradient_bez_nazwy_19"/>
    <linearGradient id="Gradient_bez_nazwy_19-10" data-name="Gradient bez nazwy 19" x1="62.74" y1="6641.92" x2="143" y2="6641.92" xlink:href="#Gradient_bez_nazwy_19"/>
    <linearGradient id="Gradient_bez_nazwy_19-11" data-name="Gradient bez nazwy 19" x1="62.74" y1="6633.64" x2="143" y2="6633.64" xlink:href="#Gradient_bez_nazwy_19"/>
    <linearGradient id="Gradient_bez_nazwy_19-12" data-name="Gradient bez nazwy 19" x1="62.74" y1="6631.66" x2="143" y2="6631.66" xlink:href="#Gradient_bez_nazwy_19"/>
    <linearGradient id="Gradient_bez_nazwy_18" data-name="Gradient bez nazwy 18" x1="26.24" y1="6762.66" x2="172.6" y2="6762.66" gradientTransform="translate(0 6821.03) scale(1 -1)" gradientUnits="userSpaceOnUse">
      <stop offset="0" stop-color="#f2a700"/>
      <stop offset=".44" stop-color="#ff006f"/>
      <stop offset="1" stop-color="#2f34ff"/>
    </linearGradient>
    <linearGradient id="Gradient_bez_nazwy_19-13" data-name="Gradient bez nazwy 19" x1="44.76" y1="1570.83" x2="101.08" y2="1570.83" gradientTransform="translate(0 -1400)" xlink:href="#Gradient_bez_nazwy_19"/>
  </defs>
  <g id="Warstwa_1-2" data-name="Warstwa 1">
    <g>
      <g class="cls-15">
        <g>
          <path class="cls-19" d="m200,18.52v162.93c0,7.24-4.15,13.5-10.2,16.55-.59.3-1.18.56-1.81.8-1.56.59-3.2.96-4.93,1.11-.52.04-1.04.07-1.57.07H18.55c-.3,0-.57,0-.87-.02-1.98-.09-3.87-.5-5.63-1.15-.61-.22-1.22-.5-1.81-.8C4.18,194.96.04,188.69.04,181.45V18.52C.04,8.29,8.33,0,18.55,0h162.93c10.22,0,18.52,8.29,18.52,18.52Z"/>
          <path class="cls-9" d="m190.02,153.64c-4.52-.91-8.63.37-11.48,1.76-6-10.68-15.33-19.76-26.77-25.61-1.5-.78-4.65-2.35-7.98-5.63-7.26-7.18-9.31-16.77-9.94-23.48-2.83,1.48-6.33,3.33-10.37,5.48h0c1.24-5.94,1.96-11.85,1.68-15.9-13.96,2.13-33.49,7.78-46.62,13.52,1.02-3.2,2.02-6.41,3.04-9.61-13.39,6.55-29.81,26-34.05,36.49-2.74,1.48-5.54,3.24-8.35,5.35-4.18,3.13-11.91,9.07-17.61,19.42-2.87-1.41-7-2.7-11.55-1.78-4.39.89-7.61,3.54-9.98,6.44v21.35c0,7.24,4.15,13.5,10.2,16.55h0c.59.3,1.18.56,1.81.8h0c1.76.67,3.67,1.06,5.63,1.15h.06c.26.02.54.02.81.02h162.93c.54,0,1.06-.02,1.57-.07,1.72-.15,3.37-.52,4.93-1.11.61-.22,1.22-.5,1.81-.8,6.05-3.04,10.2-9.31,10.2-16.55v-21.35c-2.39-2.93-5.59-5.55-9.98-6.44ZM.56,178.1s0,.02,0,0c0,.02,0,0,0,0h0Zm192.59-13.15h0c.37.31.72.63,1.04.96-.31-.33-.67-.65-1.04-.96Zm2.68,2.85c.15.19.28.39.41.57-.13-.2-.28-.39-.41-.57Zm1.78,2.94c.09.2.19.39.28.59-.09-.2-.19-.41-.28-.59Zm1.06,2.72c-.07-.22-.13-.44-.22-.67.09.24.17.46.22.67.07.22.13.43.19.65-.06-.2-.11-.43-.19-.65Zm.37,1.37c.06.2.09.41.13.61-.04-.2-.07-.39-.13-.61Zm.37,2.2c.02.13.02.26.04.37-.02-.11-.02-.24-.04-.37Zm.07,1.07c0-.09,0-.22-.02-.37.02.15.02.28.02.37h0Z"/>
          <path class="cls-17" d="m70.52,113.13h0c.91-2.74,1.81-5.5,2.72-8.24-.17.13-.33.28-.5.41.17-.15.33-.28.5-.41-.91,2.76-1.81,5.5-2.72,8.24Z"/>
          <path class="cls-9" d="m129.51,123.83c-.06.2-.11.41-.19.61v.02s-.02.06-.02.07v.02h0s-.02.09-.04.13c0,.02,0,.04-.02.04-.04.15-.09.28-.13.43v.02s-.02.04-.02.06h0v.02c-.07.22-.15.44-.22.67h0s-.02.06-.04.09c-.06.15-.11.31-.17.46v.02s-.02.06-.04.09c0,.02-.02.04-.02.04,0,.02-.02.04-.02.06-.06.15-.13.31-.19.46-.02.04-.04.07-.04.09-.02.06-.06.13-.07.19-.06.15-.13.3-.19.44v.02c-.02.06-.04.11-.07.17,0,.02-.02.02-.02.04-.06.13-.11.26-.17.37-.02.02-.02.06-.04.07h0s-.02.04-.04.07c-.02.02-.02.06-.04.07-.07.17-.15.33-.22.5h0s-.02.06-.04.07c-.07.15-.15.31-.22.46,0,.02-.02.04-.02.06-.02.04-.04.06-.04.09-.02.02-.02.04-.04.06-.07.15-.15.3-.22.44-.02.02-.02.04-.04.07-.02.02-.02.06-.04.07s-.02.04-.04.07c-.04.07-.07.15-.11.2-.02.02-.02.04-.04.06-.04.07-.07.15-.11.2-.04.06-.06.11-.09.17-.07.13-.15.26-.22.39-.02.02-.02.04-.04.06h0s-.04.06-.04.07c-.02.04-.06.09-.07.13,0,.02-.02.04-.02.04-.02.04-.06.09-.07.13,0,.02-.02.04-.04.06-.06.09-.13.2-.19.31,0,.02-.02.02-.02.04-.06.11-.13.22-.2.31-.04.06-.07.11-.09.15-.11.17-.22.35-.33.52,0,0,0,.02-.02.02-.11.15-.2.3-.31.46-.02.04-.06.07-.07.11-.26.37-.54.76-.81,1.13h0c-.13.17-.26.33-.39.5-.06.06-.09.13-.15.19,0,.02-.02.02-.02.04-.07.09-.15.19-.22.3l-.02.02s-.02.02-.04.04c0,0,0,.02-.02.02-.02.02-.02.04-.04.04-.04.04-.07.09-.11.13,0,0-.02.02-.02.04-.06.07-.11.15-.19.2-.02.02-.02.04-.04.06-.04.06-.07.09-.13.15-.11.13-.2.24-.31.37-.06.06-.09.11-.15.17l-.06.06c-.11.13-.22.26-.33.37-.15.15-.28.31-.43.46-.04.04-.07.09-.11.13-.13.15-.28.28-.41.43l-.5.5c-.17.17-.33.33-.5.48-.11.11-.22.22-.35.33l-.07.07-.22.22c-.11.11-.22.2-.33.3-.02.02-.06.04-.07.07-.11.11-.24.22-.35.31-.07.06-.15.13-.22.19-.15.13-.3.26-.44.39-.19.15-.35.3-.54.44-5.18,4.22-11.42,7.41-17.94,9.66-.76-.83-1.61-1.68-2.56-2.48-.94-.81-1.96-1.59-3.11-2.31-5.48-3.55-10.85-4.35-13.66-4.57.15-.07,6.52-4.02,6.68-4.11-5.54-1.13-19.33,1.81-24.55,5.8,1.2-2.3,2.43-4.61,3.63-6.91-7.05,1.85-12.89,5.5-17.29,10.18-10.92,11.63-13.05,29.72-3,43.07-3.63-2.02-7.74-6.7-9.15-9.54.3,5.11,2.17,12.02,4.85,19.03h-17.66c-2.18-5.09-3.85-11.28-3.85-18.35,0-10.24,3.5-18,5.39-21.74.17-.33.31-.63.46-.89,5.55-10.72,13.29-16.53,18.61-20.42,2.41-1.76,4.81-3.3,7.17-4.63,7-3.94,13.61-6.15,18.72-7.41-2.04-.7-4.07-1.43-6.11-2.13-2.96.74-6.46,1.81-10.24,3.41,4.28-6.98,12.02-16.33,19.27-22.48.07-.07.17-.15.24-.2.07-.07.17-.15.24-.2h0c-.31.93-.61,1.83-.91,2.76-.61,1.83-1.2,3.65-1.81,5.48v.02c10.46-5.76,26.77-11.94,40.9-15.46h.02c.19-.06.39-.09.57-.15.07-.02.17-.04.24-.06.09-.02.19-.04.26-.07.04,0,.07-.02.09-.02.33-.07.67-.17,1.02-.24.09-.02.17-.04.24-.06.15-.04.3-.07.44-.09h.04c.06-.02.09-.02.15-.04.07-.02.15-.04.22-.06s.15-.04.2-.04c.19-.04.39-.09.57-.13.39-.09.76-.17,1.13-.24h0c.19-.04.37-.07.56-.11.15-.02.28-.06.43-.07.06-.02.09-.02.15-.04h.02c.2-.04.41-.07.63-.13.09-.02.2-.04.3-.06.06-.02.11-.02.19-.04.13-.02.26-.04.37-.07.13-.02.26-.04.37-.07.28-.06.57-.09.85-.15h.02s.06-.02.07-.02c.07-.02.15-.02.22-.04h0c-.85,7.29-2.44,14.42-5.31,21.31t-.02.04h0s-.02.04-.02.04v.02s-.02.06-.04.07c-.02.04-.04.07-.04.11-.04.07-.06.13-.09.19-.06.13-.11.28-.19.41-.09.2-.17.41-.26.61-.02.04-.02.06-.04.09-.07.17-.15.33-.22.52h0c-.09.2-.19.41-.28.61-.13.26-.24.52-.37.78-.06.11-.11.22-.17.31,0,0,0,.02-.02.02-.09.17-.17.33-.26.52-.07.15-.17.31-.24.46,0,0,0,.02-.02.02-.02.04-.04.07-.06.13-.02.04-.04.07-.06.11-.04.07-.07.15-.13.22-.04.07-.07.15-.11.2,0,.02-.02.04-.02.06-3.11,5.83-7.28,11.44-12.85,16.77h0l-.09.09c.17-.04.33-.09.52-.13h0s.04,0,.06-.02c.09-.02.19-.04.28-.07.06-.02.11-.02.17-.04.11-.04.22-.06.33-.09.06-.02.13-.04.19-.06.07-.02.13-.04.19-.06s.09-.02.15-.04c.06-.02.11-.04.17-.06.13-.04.26-.07.39-.11.04-.02.07-.02.11-.04.11-.04.2-.06.31-.09h.02s.04-.02.06-.02h.04s.02,0,.04-.02t.04-.02c.17-.06.33-.09.5-.15.15-.04.3-.09.44-.13.02,0,.04-.02.06-.02.11-.04.22-.07.33-.11h.04s.07-.02.11-.04c.33-.11.67-.22,1-.33.17-.06.33-.11.5-.17.09-.02.17-.06.26-.09s.17-.06.24-.09c.06-.02.11-.04.15-.06.19-.07.39-.13.57-.2.09-.04.19-.06.26-.09.17-.06.33-.13.5-.19.15-.06.28-.11.43-.17.07-.04.15-.06.22-.09.11-.04.22-.09.31-.13.17-.06.33-.13.48-.2h0s.04-.02.04-.02c.04-.02.07-.04.11-.06.06-.02.09-.04.15-.06.09-.04.2-.07.3-.13.13-.06.24-.09.37-.15h0c.06-.02.11-.06.17-.07.04-.02.06-.04.09-.04.04-.02.07-.02.09-.04.04-.02.07-.04.13-.06s.11-.04.17-.07c.28-.11.54-.24.81-.35h0c.15-.06.28-.13.43-.19.02,0,.04-.02.06-.04.06-.02.09-.04.15-.07.11-.06.22-.09.33-.15h0c.2-.09.39-.19.59-.28.09-.04.19-.09.26-.13.04-.02.06-.04.09-.04.06-.04.11-.06.17-.07.11-.06.2-.09.31-.15.11-.06.22-.11.33-.17.04-.02.09-.04.15-.07.11-.06.22-.11.33-.17.02,0,.04-.02.04-.02.04-.02.06-.04.09-.04.13-.07.26-.13.39-.2.09-.06.19-.09.28-.15.02,0,.04-.02.04-.02.15-.07.31-.17.46-.24.07-.04.15-.07.22-.13.24-.13.5-.28.74-.41.09-.06.2-.11.3-.17h.02c.2-.11.41-.22.59-.35.06-.04.13-.07.19-.11.02-.02.04-.02.06-.04.07-.04.15-.09.24-.15.2-.13.41-.24.63-.37.02-.02.04-.02.06-.04.02-.02.04-.04.07-.04.02-.02.06-.04.07-.04l.07-.04c.09-.06.2-.13.3-.19.04-.04.09-.06.13-.09.02,0,.04-.02.04-.04.04-.04.09-.06.15-.09h0s.06-.04.09-.06.09-.06.13-.09c.02-.02.04-.04.07-.04.11-.07.22-.15.33-.22.04-.02.09-.06.13-.09.04-.02.07-.06.11-.07s.07-.06.11-.07c.04-.02.07-.06.13-.07.17-.11.33-.22.52-.33.02-.02.06-.04.07-.06.06-.04.11-.07.17-.11.2-.13.39-.28.59-.41.02-.02.04-.02.04-.04.04-.02.07-.06.11-.07.22-.15.43-.3.65-.46.13-.09.24-.17.37-.26.04-.04.09-.06.15-.09.04-.04.09-.07.13-.09.11-.07.22-.17.31-.24.06-.04.11-.07.17-.13h0s.06-.04.07-.06c.02-.02.06-.04.07-.06.2-.15.43-.31.63-.48h0c.24-.19.5-.39.74-.57.04-.02.06-.06.09-.07.5-.39.98-.8,1.46-1.2.06-.04.09-.07.15-.13l.02-.02c.63-.44,1.17-.91,1.68-1.39h0Z"/>
          <path class="cls-17" d="m120.5,95.76h0c-2.85.48-5.91,1.13-9.07,1.93h.02c3.15-.78,6.2-1.44,9.05-1.93h0Z"/>
          <path class="cls-17" d="m120.81,95.7h0s0,0,0,0h0s0,0,0,0c-.07.02-.15.02-.22.04h-.02c.07,0,.17-.02.24-.04h0Z"/>
          <path class="cls-6" d="m187.93,198.82c-1.56.59-3.2.96-4.93,1.11.61-1.76,1.11-3.54,1.52-5.3,1.06-1.3,2.01-2.83,2.71-4.74,0,0,1.84-5.17.73-11.24-.07-.37-.11-.56-.09-.5.85,2.43,1.63,5.49,1.8,9.08.19,4.7-.76,8.69-1.74,11.58h0Z"/>
          <path class="cls-6" d="m184.11,169.14s.02.07.04.11c1.17-.31,2.31-.46,3.46-.48h-.04c-1.28-.06-2.44.09-3.46.37h0Z"/>
          <path class="cls-6" d="m200,170.24l-.04,11.22c0,7.24-4.15,13.5-10.2,16.55,1.56-2.5,3.11-5.89,3.8-10.11,1-6.24-.41-11.24-1.26-13.63.56.15,1.13.31,1.7.52,2.46.91,4.28,2.26,5.46,3.33v-.04s.02.02.02.04c-.04-1.17-.43-8.17-6.33-13.16-4.05-3.44-8.67-4.18-11.94-4.17-.17-.37-.31-.74-.5-1.09,2.37-.72,5.45-1.15,8.6-.26,5.75,1.59,8.77,6.45,10.7,10.79h0Z"/>
          <path class="cls-9" d="m193.15,164.95c-4.05-3.44-8.67-4.18-11.94-4.17,1.18,2.7,2.15,5.5,2.89,8.33,1.02-.28,2.18-.43,3.46-.37h.04c2.81-.06,5.5.74,7.63,2.41,2.98,2.31,3.94,5.57,4.24,6.92,0,.02.02.02.02.04-.04-1.17-.43-8.17-6.33-13.16h0Z"/>
          <path class="cls-20" d="m19.42,159.75c-.11.22-.2.46-.31.7-.06.13-.09.24-.15.37-3.3-.04-7.96.67-12.09,4.17-5.89,4.96-6.28,11.98-6.33,13.13t.02-.04v.04c1.18-1.07,3-2.41,5.46-3.33.57-.2,1.15-.39,1.7-.52-.85,2.39-2.26,7.41-1.26,13.63.69,4.22,2.24,7.61,3.8,10.11C4.18,194.96.04,188.69.04,181.45v-11.38c1.94-4.28,5.05-9.17,10.68-10.76,3.2-.91,6.32-.3,8.71.44h0Z"/>
          <path class="cls-18" d="m12.5,168.77c1.22.04,2.48.22,3.7.57.02-.04.02-.07.04-.11-1.09-.31-2.35-.52-3.74-.46Z"/>
          <path class="cls-16" d="m17.68,199.94c-1.98-.09-3.87-.5-5.63-1.15-.04-.07-.06-.17-.07-.24-.11-.33-.22-.69-.33-1.04-.04-.09-.06-.19-.07-.28-.02-.09-.06-.17-.07-.26-.02-.09-.06-.2-.07-.3-.02-.09-.06-.19-.07-.3-.07-.3-.15-.59-.22-.89-.02-.11-.04-.2-.07-.31-.02-.11-.04-.2-.06-.31-.04-.13-.06-.28-.09-.41-.04-.15-.06-.31-.09-.46-.04-.24-.09-.5-.13-.74-.02-.11-.04-.22-.06-.33-.02-.13-.04-.26-.06-.37-.02-.09-.02-.2-.04-.3-.02-.09-.02-.19-.04-.28-.02-.13-.04-.28-.04-.41-.04-.3-.06-.61-.07-.93,0-.11-.02-.22-.02-.33,0-.13-.02-.26-.02-.39v-.07c0-.13,0-.28-.02-.41v-.89c0-.43,0-.87.04-1.33.15-3.57.89-6.67,1.76-9.09.02-.06-.02.13-.09.5-1.11,6.07.69,11.2.69,11.2.93,2.46,2.33,4.41,3.72,5.85.3,1.18.63,2.33.98,3.43.07.28.17.56.26.83h0Z"/>
          <path class="cls-26" d="m6.89,164.95c-5.91,5-6.3,12-6.33,13.16,0,0,0-.02.02-.04.31-1.35,1.26-4.61,4.24-6.92,2.15-1.67,4.85-2.46,7.7-2.41,1.39-.06,2.65.15,3.74.46.63-2.67,1.52-5.5,2.74-8.42-3.31-.04-8,.69-12.11,4.17h0Z"/>
          <path class="cls-8" d="m43.58,142.58c-19.24,11.13-24.92,38.57-16.2,57.38h2.17c-4.78-17.18-1.54-43.42,14.03-57.38Z"/>
          <path d="m112.91,122.53s-.02.04-.02.06c.98-1.83,1.85-3.68,2.63-5.55,0,.02-.02.02-.02.04-.78,1.83-1.65,3.65-2.59,5.46h0Z"/>
          <path d="m99.93,139.44c10.96-2.68,21.22-8.02,29.59-15.61-2.09,7.5-6.61,13.53-12.42,18.27,5.81-4.74,10.31-10.78,12.42-18.27-8.37,7.59-18.63,12.94-29.59,15.61.04-.04.07-.06.09-.09h0l-.09.09h0Z"/>
          <path class="cls-9" d="m120.5,95.76c-2.85.48-5.91,1.13-9.05,1.93,2.96-.59,5.94-1.18,9.05-1.93Z"/>
          <path class="cls-9" d="m45.31,190.43s-.02,0,0,0c-.02,0,0,.02,0,0h0Z"/>
          <path class="cls-9" d="m112.91,122.53c.96-1.8,1.81-3.63,2.59-5.46-.81,1.83-1.67,3.67-2.59,5.46Z"/>
          <path class="cls-8" d="m120.81,95.72c-1.02,5.04-5.41,13.96-9.24,18.16,1.07-3.65,2.09-7.98,2.74-11.94-4.24,9.65-18,23.59-25.9,27.59,6.65-2.48,16.03-7.65,22.16-12.48-1.3,7.5-6.63,17.79-10.65,22.37.04-.02.06-.04.07-.06h0c5.57-5.33,9.74-10.94,12.85-16.77,0-.02.02-.04.02-.06.93-1.8,1.8-3.63,2.59-5.46,0-.02.02-.02.02-.04,2.89-6.89,4.48-14.03,5.33-21.31t0,0s0-.02,0,0h0Z"/>
          <path class="cls-8" d="m62.03,122.63c9.7-6.68,10.91-7.76,25.51-15.18,13.57-6.5,29.83-10.87,33.03-11.7h.02s-.06,0-.07.02h-.02c-3.09.74-6.09,1.33-9.05,1.93h-.02c-14.13,3.52-30.44,9.7-40.9,15.46v-.02h0c-5.26,4.72-5.81,5.74-8.5,9.5h0Z"/>
          <path class="cls-9" d="m132.2,156.19c-.06.02-.11.04-.15.04.04-.02.09-.02.15-.04Z"/>
          <path class="cls-9" d="m143.12,160.62c-.22-.02-.44-.04-.67-.07.22.02.44.04.67.07Z"/>
          <path class="cls-9" d="m129.48,160.56c-.3.04-.57.06-.87.09.3-.02.57-.06.87-.09Z"/>
          <path class="cls-9" d="m145.38,160.9c-.2-.04-.41-.06-.61-.07.2.02.43.04.61.07Z"/>
          <path class="cls-9" d="m152.21,162.19s-.04,0-.06-.02c.02,0,.04.02.06.02Z"/>
          <path class="cls-9" d="m144.23,160.75c-.2-.02-.41-.06-.61-.07.22.02.41.04.61.07Z"/>
          <path class="cls-9" d="m131.86,156.29c-.06.02-.13.04-.19.06.07-.02.13-.04.19-.06Z"/>
          <path class="cls-9" d="m131.55,156.38c-.24.07-.5.17-.74.24.24-.07.5-.17.74-.24Z"/>
          <path class="cls-9" d="m129.88,156.99c-.06.02-.11.04-.17.07.06-.04.11-.06.17-.07Z"/>
          <path class="cls-9" d="m128.87,157.42s-.04.02-.07.04c.04,0,.06-.02.07-.04Z"/>
          <path class="cls-9" d="m130.66,156.67c-.07.02-.15.06-.22.07.07-.02.15-.04.22-.07Z"/>
          <path class="cls-9" d="m130.29,156.82c-.07.02-.13.06-.2.07.06-.02.13-.06.2-.07Z"/>
          <path class="cls-9" d="m139.66,160.34c-.33-.02-.65-.04-.96-.04.31.02.63.02.96.04Z"/>
          <path class="cls-9" d="m129.49,160.56c2.67-.26,5.7-.39,9.07-.28-3.39-.11-6.42.04-9.07.28h0Z"/>
          <path class="cls-9" d="m130.55,157.71c-.43.44-.85.98-1.24,1.59-.3.46-.52.93-.7,1.35h0c.3-.7.81-1.7,1.7-2.68.07-.09.15-.17.24-.26h0Z"/>
          <path class="cls-9" d="m139.83,160.36c.72.04,1.44.09,2.18.15h-.11c-.7-.07-1.41-.11-2.07-.15h0Z"/>
          <path class="cls-9" d="m129.29,157.23s.02,0,.04-.02h0s-.04.02-.04.02h0Z"/>
          <path class="cls-9" d="m155.34,163.03c-.06-.02-.11-.04-.17-.06.04.02.09.04.17.06Z"/>
          <path class="cls-9" d="m154.64,162.82c-.06-.02-.11-.04-.17-.04.06,0,.11.02.17.04Z"/>
          <path class="cls-9" d="m155.99,163.23h-.04s.02,0,.04,0Z"/>
          <path class="cls-9" d="m123.44,161.03h0c.09-.07.19-.15.28-.24-.11.07-.2.17-.28.24h0Z"/>
          <path class="cls-9" d="m110.31,162.71s-.02,0,0,0t0,0Z"/>
          <path class="cls-9" d="m110.66,162.82c-.09-.02-.19-.04-.28-.07.09.04.19.06.28.07Z"/>
          <path d="m44.64,162.53c.04-.19.09-.35.13-.54-.04.17-.07.35-.13.54Z"/>
          <path class="cls-5" d="m44.64,162.53c.04-.19.09-.35.13-.54-.04.17-.07.35-.13.54Z"/>
          <path d="m46.4,183.73s-.02-.06-.04-.07c0,.02.02.06.04.07Z"/>
          <path class="cls-14" d="m46.4,183.73s-.02-.06-.04-.07c0,.02.02.06.04.07Z"/>
          <path d="m44.81,161.88c.83-3.11,2.15-6.05,3.93-8.76-1.81,2.74-3.11,5.68-3.93,8.76h0Z"/>
          <path class="cls-13" d="m44.81,161.88c.83-3.11,2.15-6.05,3.93-8.76-1.81,2.74-3.11,5.68-3.93,8.76h0Z"/>
          <path d="m49.06,152.62s.06-.09.09-.13c-.04.06-.07.09-.09.13Z"/>
          <path class="cls-3" d="m49.06,152.62s.06-.09.09-.13c-.04.06-.07.09-.09.13Z"/>
          <path d="m99.85,162.04c-.02-.07-.04-.15-.06-.2.04.17.07.3.09.37,0-.06-.02-.11-.04-.17Z"/>
          <path class="cls-7" d="m99.85,162.04c-.02-.07-.04-.15-.06-.2.04.17.07.3.09.37,0-.06-.02-.11-.04-.17Z"/>
          <path d="m99.69,161.49s.02.06.02.07c0-.02,0-.06-.02-.07Z"/>
          <path class="cls-1" d="m99.69,161.49s.02.06.02.07c0-.02,0-.06-.02-.07Z"/>
          <path d="m90.39,178.95c-.06-.02-.11-.04-.17-.04.06.02.11.04.17.04.59.22,1.09.54,1.54.93-.44-.39-.94-.7-1.54-.93Zm2.07,1.44c.24.26.44.54.67.81-.22-.28-.44-.56-.67-.81Zm1.11,1.5c.22.35.44.7.67,1.07-.2-.37-.43-.72-.67-1.07Z"/>
          <path d="m124.07,184.17c-2.11-2.07-4.43-4.17-7.2-5.04,2.78.87,5.09,2.96,7.2,5.04Z"/>
          <path class="cls-21" d="m124.07,184.17c-2.11-2.07-4.43-4.17-7.2-5.04,2.78.87,5.09,2.96,7.2,5.04Z"/>
          <path d="m105.61,188.15c.06-.06.11-.13.17-.19-.06.06-.11.13-.17.19h0c-.3.31-.57.63-.87.94.3-.31.59-.63.87-.94h0Z"/>
          <path class="cls-11" d="m105.61,188.15c.06-.06.11-.13.17-.19-.06.06-.11.13-.17.19h0c-.3.31-.57.63-.87.94.3-.31.59-.63.87-.94h0Z"/>
          <path d="m91.93,179.87c-.44-.39-.94-.7-1.54-.91-.06-.02-.11-.04-.17-.04.06.02.11.04.17.04.59.2,1.09.52,1.54.91Z"/>
          <path d="m93.11,181.21c-.2-.3-.43-.56-.67-.81.24.26.46.54.67.81Z"/>
          <path d="m94.26,182.97c-.22-.35-.44-.72-.67-1.07.22.35.44.7.67,1.07Z"/>
          <path d="m114.81,178.73h0c-2.07.02-3.39,1.31-4.5,2.93,1.11-1.61,2.43-2.91,4.5-2.93h0Z"/>
          <path class="cls-12" d="m114.81,178.73h0c-2.07.02-3.39,1.31-4.5,2.93,1.11-1.61,2.43-2.91,4.5-2.93h0Z"/>
          <path d="m116.77,179.1s.06.02.09.02c-.04,0-.07,0-.09-.02Z"/>
          <path class="cls-10" d="m116.77,179.1s.06.02.09.02c-.04,0-.07,0-.09-.02Z"/>
          <path d="m106.05,187.65c.2-.22.41-.46.59-.7-.2.24-.39.48-.59.7h0c-.06.06-.11.13-.15.19.04-.06.09-.11.15-.19h0Z"/>
          <path class="cls-28" d="m106.05,187.65c.2-.22.41-.46.59-.7-.2.24-.39.48-.59.7h0c-.06.06-.11.13-.15.19.04-.06.09-.11.15-.19h0Z"/>
          <path class="cls-9" d="m121.83,192.82s-.02.06-.04.09c.02-.04.04-.07.04-.09Z"/>
          <path class="cls-9" d="m121.76,193s-.02.06-.04.07c0-.02.02-.06.04-.07Z"/>
          <path class="cls-9" d="m121.66,193.17s-.02.04-.04.06c.02-.02.04-.04.04-.06Z"/>
          <path d="m121.57,193.32l.06-.11s.02-.04.04-.06c.02-.04.04-.07.06-.09s.02-.06.04-.07c.02-.04.04-.06.04-.09.02-.04.02-.06.04-.09,0-.02.02-.06.04-.07.11-.33.17-.69.15-1.04-.02-.56-.22-1.11-.59-1.56-.5-.65-1.2-1.33-2.17-1.89-.87-.52-1.72-.8-2.46-.94-1.11-.22-2.22.28-2.83,1.24-1.07,1.7-2.54,3.68-4.52,5.68-2.65,2.65-5.3,4.41-7.29,5.52h0c-2-1.11-4.65-2.85-7.29-5.52-1.98-2-3.44-3.98-4.52-5.68-.26-.41-.59-.72-1-.94h0c-.56-.3-1.18-.41-1.83-.3-.74.15-1.59.43-2.46.94-.96.56-1.67,1.26-2.17,1.89-.72.93-.8,2.2-.15,3.2.13.2.26.41.41.61.91,1.31,2.04,2.76,3.52,4.22.67.67,1.35,1.26,2.02,1.81h26.96c.67-.54,1.35-1.15,2.02-1.81,1.7-1.68,2.98-3.37,3.93-4.85h0Z"/>
          <path class="cls-19" d="m87.87,74.88h41.55c4.41,0,7.98,3.57,7.98,7.98v17.03c0,4.41-3.57,7.98-7.98,7.98h-41.55c-4.41,0-7.98-3.57-7.98-7.98v-17.03c0-4.41,3.57-7.98,7.98-7.98Z"/>
          <path d="m180.73,159.71c.17.37.33.72.48,1.09,1.18,2.7,2.15,5.5,2.89,8.33,0,.04.02.07.04.11,1.15-.31,2.31-.46,3.46-.48,2.81-.06,5.5.74,7.63,2.41,2.98,2.31,3.93,5.57,4.24,6.92v.04c-1.18-1.07-3-2.43-5.46-3.33-.57-.2-1.15-.39-1.7-.52.85,2.41,2.26,7.41,1.26,13.63-.69,4.22-2.24,7.61-3.8,10.11-.59.3-1.18.56-1.81.8.98-2.89,1.89-6.85,1.68-11.57-.15-3.57-.89-6.67-1.76-9.09-.02-.06.02.11.09.5,1.11,6.07-.69,11.2-.69,11.2-.7,1.91-1.7,3.48-2.76,4.78-.41,1.78-.91,3.54-1.52,5.3-.52.04-1.04.07-1.57.07H40.99v-.02c-2.68-7.02-4.54-13.92-4.85-19.03,1.41,2.83,5.52,7.52,9.15,9.54-10.05-13.35-7.92-31.44,3-43.07,4.41-4.68,10.26-8.33,17.29-10.18-1.2,2.3-2.43,4.61-3.63,6.91,5.22-3.98,19.01-6.92,24.55-5.8-.15.09-6.54,4.04-6.68,4.11,2.81.22,8.18,1.02,13.66,4.57,1.13.72,2.17,1.52,3.11,2.31.94.81,1.78,1.65,2.56,2.48,6.52-2.26,12.76-5.44,17.94-9.66.19-.15.37-.3.54-.44.15-.13.3-.26.44-.39.07-.06.15-.13.22-.19.11-.09.24-.2.35-.31.02-.02.06-.04.07-.07.11-.09.22-.2.33-.3l.22-.22.07-.07c.11-.11.22-.22.35-.33.17-.17.33-.31.5-.48l.5-.5c.13-.15.28-.28.41-.43.04-.04.07-.09.11-.13.15-.15.28-.31.43-.46.11-.13.22-.26.33-.37l.06-.06c.06-.06.09-.11.15-.17.11-.13.2-.24.31-.37.04-.06.09-.09.13-.15.02-.02.04-.04.04-.06.06-.07.11-.15.19-.2,0,0,.02-.02.02-.04.04-.04.07-.09.11-.13l.04-.04s0-.02.02-.02l.04-.04.02-.02c.07-.09.15-.19.22-.3t.02-.04c.06-.06.09-.13.15-.19.13-.17.26-.33.39-.5h0c.28-.37.56-.74.81-1.13.02-.04.06-.07.07-.11.11-.15.2-.3.31-.46,0,0,0-.02.02-.02.11-.17.22-.33.33-.52.04-.06.07-.11.09-.15.07-.11.13-.2.2-.31,0-.02.02-.02.02-.04.06-.09.13-.2.19-.31.02-.02.02-.04.04-.06.02-.04.06-.07.07-.13,0-.02.02-.02.02-.04.02-.04.06-.09.07-.13.02-.02.04-.06.04-.07h0s.02-.04.04-.06c.07-.13.15-.26.22-.39.04-.06.07-.11.09-.17.04-.07.07-.15.11-.2.02-.02.02-.04.04-.06.04-.07.07-.13.11-.2.02-.02.02-.04.04-.07.02-.02.02-.06.04-.07s.02-.04.04-.07c.07-.15.15-.3.22-.44.02-.02.02-.04.04-.06.02-.04.04-.06.04-.09,0-.02.02-.04.02-.06.07-.15.15-.3.22-.46.02-.02.02-.06.04-.07h0c.07-.17.15-.33.22-.5.02-.02.02-.06.04-.07s.02-.04.04-.07h0s.02-.06.04-.07c.06-.13.11-.24.17-.37t.02-.04c.02-.06.04-.11.07-.17v-.02c.06-.15.13-.3.19-.44.04-.06.06-.13.07-.19.02-.04.02-.07.04-.09.06-.15.13-.31.19-.46,0-.02.02-.04.02-.06s.02-.04.02-.04c.02-.04.02-.06.04-.09v-.02c.06-.15.11-.3.17-.46.02-.04.02-.06.04-.09h0c.07-.22.15-.44.22-.67v-.02h0s.02-.04.02-.06v-.02c.06-.15.09-.28.13-.43,0-.02,0-.04.02-.04.02-.04.02-.09.04-.13h0v-.02s.02-.06.02-.07v-.02c.06-.2.11-.41.19-.61h0c-.52.48-1.06.94-1.59,1.39-.02,0-.02.02-.02.02-.04.04-.09.07-.15.13-.48.41-.98.81-1.46,1.2-.04.02-.06.06-.09.07-.24.19-.5.39-.74.57h0c-.2.17-.43.31-.63.48-.02.02-.06.04-.07.06-.02.02-.06.04-.07.06h0c-.06.04-.11.09-.17.13-.11.07-.22.17-.31.24-.04.04-.09.07-.13.09-.04.04-.09.07-.15.09-.11.09-.24.19-.37.26-.22.15-.43.3-.65.46-.04.04-.07.06-.11.07-.02.02-.04.02-.04.04-.2.13-.39.28-.59.41-.06.04-.11.07-.17.11-.04.02-.06.04-.07.06-.17.11-.33.22-.52.33-.04.02-.07.06-.13.07-.04.02-.07.06-.11.07s-.07.06-.11.07c-.04.04-.09.06-.13.09-.11.07-.22.15-.33.22-.02.02-.04.04-.07.04-.04.04-.09.06-.13.09-.04.02-.06.04-.09.06h0s-.09.06-.15.09c-.02,0-.04.02-.04.04-.04.04-.09.06-.13.09-.09.06-.2.13-.3.19l-.07.04s-.06.04-.07.04c-.02.02-.04.04-.07.04-.02.02-.04.02-.06.04-.2.13-.41.24-.63.37-.07.04-.15.09-.24.15-.02.02-.04.02-.06.04-.06.04-.13.07-.19.11-.2.11-.39.22-.59.35h-.02c-.09.06-.2.11-.3.17-.24.15-.5.28-.74.41-.07.04-.15.07-.22.13-.15.09-.31.17-.46.24-.02,0-.04.02-.04.02-.09.06-.19.09-.28.15-.13.07-.26.13-.39.2-.04.02-.06.04-.09.04-.02,0-.04.02-.04.02-.11.06-.22.11-.33.17-.04.02-.09.04-.15.07-.11.06-.22.11-.33.17-.11.06-.2.09-.31.15-.06.04-.11.06-.17.07-.04.02-.06.04-.09.04-.09.04-.19.09-.26.13-.2.09-.39.19-.59.28h0c-.11.06-.22.11-.33.15-.06.02-.09.04-.15.07-.02.02-.04.02-.06.04-.15.06-.28.13-.43.19h0c-.28.11-.54.24-.81.35-.06.02-.11.06-.17.07-.04.02-.07.04-.13.06-.04.02-.07.04-.09.04-.04.02-.06.02-.09.04-.06.02-.11.04-.17.07h0c-.13.06-.24.09-.37.15-.09.04-.2.07-.3.13-.06.02-.09.04-.15.06-.04.02-.07.04-.11.06-.02,0-.04.02-.04.02h0c-.17.07-.33.13-.48.2-.11.04-.22.09-.31.13-.07.04-.15.06-.22.09-.15.06-.3.11-.43.17-.17.06-.33.13-.5.19-.09.04-.17.07-.26.09-.19.07-.39.15-.57.2-.06.02-.11.04-.15.06-.07.04-.17.06-.24.09-.07.04-.17.06-.26.09-.17.06-.33.11-.5.17-.33.11-.67.22-1,.33-.06.02-.09.04-.11.04h-.04c-.11.04-.22.07-.33.11-.02,0-.04.02-.06.02-.15.04-.3.09-.44.13-.17.06-.33.09-.5.15t-.04.02s-.02,0-.04.02h-.04s-.04.02-.06.02h-.02c-.11.04-.2.06-.31.09-.04.02-.07.02-.11.04-.13.04-.26.07-.39.11-.06.02-.11.04-.17.06-.06.02-.09.02-.15.04-.07.02-.13.04-.19.06s-.13.04-.19.06c-.11.04-.22.06-.33.09-.06.02-.11.04-.17.04-.09.02-.19.06-.28.07-.02,0-.04.02-.06.02h0c-.17.04-.33.09-.52.13l.09-.09h0c5.57-5.33,9.74-10.94,12.85-16.77,0-.02.02-.04.02-.06.04-.07.07-.15.11-.2.04-.07.07-.15.13-.22.02-.04.04-.07.06-.11.02-.04.04-.07.06-.13,0,0,0-.02.02-.02.07-.15.17-.31.24-.46.09-.17.17-.33.26-.52,0,0,0-.02.02-.02.06-.11.11-.22.17-.31.13-.26.26-.52.37-.78.09-.2.19-.41.28-.61h0c.07-.17.15-.33.22-.52.02-.04.02-.06.04-.09.09-.2.19-.41.26-.61.06-.13.11-.28.19-.41.04-.06.06-.13.09-.19.02-.04.04-.07.04-.11.02-.02.02-.06.04-.07v-.02s.02-.04.02-.04h0s0-.02.02-.04c2.87-6.89,4.44-14.02,5.31-21.31h0c-.07.02-.15.02-.22.04-.02,0-.06,0-.07.02h-.02c-.28.06-.57.09-.85.15-.13.02-.26.04-.37.07-.13.02-.26.04-.37.07-.06.02-.11.02-.19.04-.09.02-.2.04-.3.06-.2.04-.41.07-.63.13h-.02c-.06,0-.09.02-.15.04-.15.02-.28.06-.43.07-.19.04-.37.07-.56.11h0c-.37.07-.76.17-1.13.24-.19.04-.39.07-.57.13-.07.02-.13.04-.2.04-.07.02-.15.04-.22.06-.06.02-.09.02-.15.04h-.04c-.15.04-.3.07-.44.09-.07.02-.17.04-.24.06-.33.07-.67.15-1.02.24-.04,0-.07.02-.09.02-.09.02-.17.04-.26.07-.07.02-.15.04-.24.06-.19.04-.39.09-.57.15h-.02c-14.13,3.52-30.44,9.7-40.9,15.46v-.02c.61-1.83,1.2-3.65,1.81-5.48.3-.93.61-1.83.91-2.76h0c-.07.07-.17.15-.24.2-.09.07-.17.15-.24.2-7.26,6.15-15,15.5-19.27,22.48,3.78-1.59,7.28-2.67,10.24-3.41,2.04.7,4.07,1.43,6.11,2.13-5.11,1.26-11.72,3.46-18.72,7.41-2.37,1.33-4.76,2.87-7.17,4.63-5.3,3.89-13.05,9.72-18.61,20.42-.13.26-.3.56-.46.89-1.89,3.74-5.37,11.5-5.39,21.74,0,7.07,1.67,13.28,3.85,18.35v.02h-4.87c-.28,0-.54,0-.81-.02h-.06l-.28-.83c-.35-1.09-.69-2.24-.98-3.43-1.39-1.44-2.8-3.39-3.72-5.85,0,0-1.8-5.13-.69-11.2.07-.37.11-.56.09-.5-.85,2.43-1.59,5.5-1.76,9.09-.02.44-.04.89-.04,1.33v.89c0,.13,0,.28.02.41v.07c0,.13.02.26.02.39,0,.11.02.22.02.33.02.31.04.61.07.93.02.15.04.28.04.41,0,.09.02.19.04.28.02.09.02.2.04.3.02.13.04.26.06.37s.04.22.06.33c.04.26.07.5.13.74.02.15.06.31.09.46s.06.28.09.41c.02.11.04.2.06.31s.04.2.07.31c.07.3.15.59.22.89.02.09.06.19.07.28.02.09.06.2.07.3.02.09.06.19.07.26.02.09.06.19.07.28.11.37.22.7.33,1.04.02.07.06.17.07.24-.61-.22-1.22-.5-1.81-.8-1.56-2.5-3.11-5.89-3.8-10.11-1-6.24.41-11.24,1.26-13.63-.56.15-1.13.31-1.7.52-2.43.91-4.24,2.24-5.42,3.31v-.04c.31-1.35,1.26-4.61,4.24-6.92,2.15-1.67,4.85-2.46,7.7-2.41,1.22.04,2.48.22,3.7.57,0-.04.02-.07.02-.11.63-2.67,1.52-5.5,2.74-8.42.06-.11.09-.24.15-.37.09-.24.2-.46.3-.7-2.39-.74-5.46-1.18-8.68-.28-5.61,1.59-8.78,6.5-10.72,10.78v-10.16c2.39-2.93,5.59-5.57,9.98-6.44,4.55-.93,8.68.39,11.55,1.78,5.72-10.35,13.44-16.27,17.61-19.42,2.81-2.11,5.61-3.87,8.35-5.35,4.28-10.44,20.7-29.88,34.09-36.46-1.02,3.2-2.02,6.41-3.04,9.61,13.13-5.74,32.66-11.39,46.62-13.52.28,4.05-.44,9.96-1.68,15.9h0c4.04-2.15,7.54-4,10.37-5.48.65,6.7,2.68,16.29,9.94,23.48,3.33,3.3,6.48,4.87,7.98,5.63,11.44,5.87,20.77,14.92,26.77,25.61,2.87-1.39,6.96-2.67,11.5-1.76,4.39.89,7.62,3.54,9.96,6.45v10.18c-1.92-4.28-5.07-9.2-10.7-10.79-3.18-.87-6.2-.46-8.57.26Z"/>
          <path class="cls-6" d="m171.52,164.93c1.33,6.55.83,12.07.24,15.53,1.74-2.59,3.48-5.18,5.22-7.76-.41-2.78-1.31-6.7-3.43-11.03-2.3-4.68-5.11-8-7.17-10.05,1.7,2.89,3.93,7.41,5.13,13.31h0Z"/>
          <path class="cls-9" d="m110.15,162.6l-.04-.04c2.37-2.22,6.18-5.22,11.52-7.35,2.91-1.17,5.59-1.8,7.81-2.15-1.52,1.3-3.02,2.59-4.54,3.89,1.59-.85,3.59-1.72,5.96-2.39,4.7-1.31,8.81-1.2,11.55-.91-1.33.13-3.57.52-5.89,1.93-1.28.78-2.24,1.63-2.93,2.35,2.8.17,5.92.52,9.35,1.2,5.15,1.04,9.54,2.56,13.03,4.07-2.18-1.68-5.7-3.96-10.52-5.33-2.93-.83-5.55-1.11-7.63-1.18,1.48-.63,3.96-1.44,7.07-1.39,5.02.07,8.59,2.31,10.02,3.3-1.96-1.72-5.3-4.22-10.02-5.91-5.15-1.85-9.37-1.81-12.53-1.78-4.13.07-15.98.26-21.07,7.44-.22.3-1.67,2.35-1.48,3.57.02.19.09.33.19.46.02.09.07.15.13.2h0Z"/>
          <path class="cls-6" d="m133.6,157.95c.69-.72,1.65-1.59,2.93-2.35,2.33-1.41,4.55-1.8,5.89-1.93-2.74-.31-6.85-.41-11.55.91-2.37.67-4.37,1.54-5.96,2.39,1.52-1.3,3.02-2.59,4.54-3.89-2.22.35-4.91.98-7.81,2.15-5.33,2.13-9.15,5.13-11.52,7.35l.04.04s.04.02.04.04l.02.02h0s.04.02.07.04c0,0,.02,0,.02.02.02.02.06.02.07.04h.02c.09.04.17.06.28.07.02,0,.06,0,.07.02h.02c.72.13,1.67-.04,1.67-.04.37-.06.83-.13,1.37-.26,1-.15,2-.31,3-.46,2.22-.35,4.43-.7,6.65-1.06h0c.09-.07.19-.15.28-.24,1.17-1.02,2.7-2.15,4.67-3.13h0c.15-.07.28-.13.43-.2.02-.02.04-.02.07-.04.15-.06.28-.13.43-.19,0,0,.02,0,.02-.02h0c.13-.06.26-.11.39-.17.06-.02.11-.04.17-.07.07-.04.13-.06.2-.07.07-.04.13-.06.2-.07.06-.02.11-.04.17-.06.07-.04.15-.06.22-.07.04-.02.09-.04.13-.06.26-.09.5-.17.74-.24.06-.02.09-.04.15-.04.06-.02.13-.04.19-.06s.11-.04.17-.06c.06-.02.11-.04.15-.04.09-.04.2-.06.3-.07h.02c-.5.31-1.15.78-1.8,1.43h0l-.19.19c-.07.09-.15.17-.24.26-.89,1-1.41,2-1.7,2.68h.02c.28-.04.57-.06.87-.09h.02c2.65-.26,5.68-.41,9.07-.28h.13c.31.02.65.02.96.04h.17c.69.04,1.39.09,2.09.15h.11c.15.02.3.04.43.04.22.02.44.04.67.07.17.02.33.04.52.06.2.02.41.04.61.07.19.02.35.04.54.07.2.02.41.06.61.07.52.07,1.02.15,1.5.22h0c1.89.3,3.65.67,5.28,1.06.02,0,.04,0,.06.02.54.13,1.06.26,1.56.41h.04c.22.06.44.13.67.19.06.02.11.04.17.04.19.06.35.09.52.15.06.02.11.04.17.06.2.06.43.13.63.19h.04c-3.52-1.5-7.89-3.02-13.03-4.07-3.44-.69-6.59-1.04-9.37-1.2h0Z"/>
          <path class="cls-6" d="m132.23,189.41l2.65,6.09c1.61-1.41,3.5-3.31,5.33-5.78.11-.15.22-.3.33-.44,1.93-2.67,3.2-5.2,4.07-7.24-1.24,1.11-2.76,2.35-4.61,3.55-.67.44-1.39.87-2.15,1.3-2.04,1.11-3.96,1.93-5.63,2.52h0Z"/>
          <path class="cls-6" d="m158.03,191.43c-2.5,2.61-6.07,5.8-10.87,8.54h6.2c2.11-3.15,3.61-6.11,4.67-8.54Z"/>
          <path class="cls-24" d="m83.13,193.93c-.15-.2-.28-.41-.41-.61-.63-.98-.57-2.26.15-3.2.5-.65,1.2-1.33,2.17-1.89.87-.52,1.72-.8,2.46-.94.63-.13,1.28-.02,1.83.3h0c.39.22.74.54,1,.94,1.07,1.7,2.54,3.68,4.52,5.68,2.65,2.65,5.3,4.41,7.29,5.52l-.28-7.91c.31-.28.63-.56.94-.85-.31.3-.63.57-.94.85-3.52-3.04-5.74-5.94-7.17-8.13-1.24-1.89-2.22-3.96-4.31-4.72-4.96-1.41-10.28,4.85-13.7,8.2-3.54,3.63-1.41,8.54,1.89,12.81h10.09c-.67-.54-1.35-1.15-2.02-1.81-1.48-1.46-2.63-2.91-3.52-4.24h0Z"/>
          <path class="cls-9" d="m125.79,185.89l-1.72-1.72c-2.11-2.07-4.43-4.17-7.2-5.04h0s-.06-.02-.09-.02c-.63-.19-1.28-.31-1.96-.37h0c-2.07.02-3.39,1.31-4.5,2.93-1.06,1.52-1.93,3.33-3.09,4.59h0c-.13.15-.24.31-.37.46h0c-.07.09-.15.17-.2.26-.19.24-.39.46-.59.7h0c-.06.06-.11.11-.15.19-.04.04-.07.09-.11.13-.06.06-.11.13-.17.19h0c-.3.31-.57.63-.87.94-.61.65-1.26,1.26-1.91,1.87-.31.3-.63.57-.94.85l.28,7.91h0c2-1.11,4.65-2.85,7.29-5.52,1.98-2,3.46-3.98,4.52-5.68.59-.94,1.72-1.44,2.83-1.24.74.15,1.59.43,2.46.94.96.56,1.67,1.26,2.17,1.89.37.46.56,1,.59,1.56.02.35-.04.7-.15,1.04-.19,1.67-.5,3.46-.98,5.39-.15.63-.31,1.24-.5,1.83h4.78c1.33-1.7,2.44-3.44,3.05-5.07,1.76-3.24.24-6.83-2.46-9h0Z"/>
          <path class="cls-6" d="m121.87,192.74s-.02.06-.04.07c-.02.04-.02.06-.04.09-.02.04-.02.06-.04.09-.02.02-.02.06-.04.07-.02.04-.04.07-.06.09,0,.02-.02.04-.04.06l-.06.11c-.94,1.48-2.22,3.15-3.93,4.83-.67.67-1.35,1.26-2.02,1.81h4.76c.17-.59.33-1.2.5-1.83.46-1.94.78-3.76.98-5.41h0Z"/>
          <path class="cls-19" d="m127.29,108.37h-39.12c-4.94,0-8.94-4-8.94-8.94v-14.31c0-4.94,4-8.94,8.94-8.94h39.12c4.94,0,8.94,4,8.94,8.94v14.31c.02,4.94-4,8.94-8.94,8.94Z"/>
          <g>
            <path class="cls-4" d="m30.86,48.57h137.1c2.56,0,4.63,2.07,4.63,4.63v14.98H26.24v-14.98c0-2.56,2.07-4.63,4.63-4.63h0Z"/>
            <path class="cls-25" d="m172.97,127.12l-13.85-31.86c-1.78-4.09-.74-8.87,2.57-11.85l.09-.07c.98-.89,2.11-1.57,3.31-2.04s2.5-.7,3.81-.7c2.04,0,3.68-1.65,3.68-3.68v-8.72H26.24v8.72c0,2.04,1.65,3.68,3.68,3.68h47.42c-.02.17-.02.33-.02.5v21.53c0,3.96,3.2,7.17,7.17,7.17l29.98.02c4.72.3,8.48,4.76,8.48,10.22,0,2.31-.67,4.43-1.8,6.15-.41.63-.52,1.43-.26,2.13l.33.96c.26.74.81,1.33,1.54,1.63,3.44,1.43,5.89,5.2,5.89,9.63,0,1.37-.24,2.68-.67,3.89-.5,1.37-.19,2.91.81,3.94,2.65,2.76,6.76,3.83,10.57,2.43l27.99-10.44c5.31-2,7.87-8.02,5.61-13.22h0Zm-56.16-27.55c-2.02,2.02-4.8,3.26-7.87,3.26h-13.79c-6.15,0-11.13-4.98-11.13-11.13,0-3.07,1.24-5.85,3.26-7.87s4.8-3.26,7.87-3.26h13.79c1.61,0,3.13.33,4.52.94-.06,1.61-.43,3.78-1.61,5.98-1.67,3.11-4.15,4.78-5.48,5.5-1.18.65-1.61,2.13-.96,3.3.44.81,1.28,1.26,2.13,1.26.39,0,.8-.09,1.17-.3,3.11-1.7,5.76-4.35,7.42-7.48.89-1.63,1.43-3.26,1.76-4.74,1.37,1.85,2.18,4.15,2.18,6.61,0,3.13-1.24,5.92-3.26,7.92h0Z"/>
            <rect class="cls-22" x="137.4" y="48.57" width="4.2" height="19.61"/>
            <rect class="cls-23" x="137.4" y="48.57" width="2.09" height="19.61"/>
            <rect class="cls-22" x="144.53" y="48.57" width="4.2" height="19.61"/>
            <rect class="cls-23" x="144.53" y="48.57" width="2.09" height="19.61"/>
            <rect class="cls-22" x="151.66" y="48.57" width="4.2" height="19.61"/>
            <rect class="cls-23" x="151.66" y="48.57" width="2.09" height="19.61"/>
            <rect class="cls-22" x="158.79" y="48.57" width="4.2" height="19.61"/>
            <rect class="cls-23" x="158.79" y="48.57" width="2.09" height="19.61"/>
            <path class="cls-2" d="m167.97,48.57c2.56,0,4.63,2.07,4.63,4.63v14.98h0v8.72c0,2.04-1.65,3.68-3.68,3.68-1.31,0-2.61.24-3.81.7s-2.33,1.15-3.31,2.04l-.09.07c-3.31,2.98-4.35,7.76-2.57,11.85l13.85,31.88c2.26,5.18-.3,11.2-5.61,13.18l-27.99,10.44c-1.15.43-2.3.63-3.44.63-2.68,0-5.28-1.11-7.13-3.04-1-1.06-1.31-2.59-.81-3.94.43-1.2.67-2.52.67-3.89,0-4.43-2.44-8.18-5.89-9.63-.72-.3-1.28-.89-1.54-1.63l-.33-.96c-.24-.7-.15-1.5.26-2.13,1.13-1.7,1.8-3.83,1.8-6.15,0-5.46-3.76-9.94-8.48-10.22h-29.98c-3.96,0-7.17-3.2-7.17-7.17v-21.53c0-.17,0-.33.02-.5H29.92c-2.04,0-3.68-1.65-3.68-3.68v-8.72h0v-14.98c0-2.56,2.07-4.63,4.63-4.63l137.1-.02m-72.8,54.27h13.79c3.07,0,5.85-1.24,7.87-3.26,2.02-2.02,3.26-4.8,3.26-7.87,0-2.48-.81-4.78-2.18-6.61-.33,1.48-.87,3.09-1.76,4.74-1.68,3.13-4.31,5.78-7.42,7.48-.37.2-.78.3-1.17.3-.87,0-1.7-.46-2.13-1.26-.65-1.18-.2-2.67.96-3.3,1.33-.72,3.81-2.41,5.48-5.5,1.18-2.22,1.56-4.37,1.61-5.98-1.39-.61-2.91-.94-4.52-.94h-13.79c-3.07,0-5.85,1.24-7.87,3.26s-3.26,4.8-3.26,7.87c0,6.11,4.98,11.09,11.13,11.07m72.8-58.14H30.86c-4.68,0-8.5,3.81-8.5,8.5v23.7c0,4.17,3.39,7.55,7.55,7.55h43.53v18.16c0,6.09,4.94,11.03,11.03,11.03l29.85.02c1.18.09,2.3.72,3.17,1.78,1.02,1.22,1.57,2.85,1.57,4.57,0,1.48-.41,2.87-1.15,4.02-1.07,1.63-1.33,3.68-.69,5.52l.33.96c.61,1.78,1.96,3.2,3.7,3.94,2.09.87,3.52,3.3,3.52,6.05,0,.89-.15,1.76-.44,2.57-.48,1.33-.59,2.78-.3,4.18.3,1.43.96,2.72,1.96,3.76,2.57,2.68,6.2,4.24,9.92,4.24,1.65,0,3.26-.3,4.8-.87l27.99-10.46c1.8-.67,3.41-1.68,4.78-3.02,1.31-1.28,2.35-2.8,3.07-4.48s1.09-3.48,1.09-5.33-.37-3.76-1.15-5.54l-13.85-31.86c-1.11-2.57-.46-5.55,1.61-7.44h0l.07-.07c.61-.56,1.31-.98,2.09-1.28s1.59-.44,2.44-.44c4.17,0,7.55-3.39,7.55-7.55v-12.59h0v-11.11c.04-4.68-3.78-8.5-8.48-8.52h0Zm-72.82,54.27c-4,0-7.26-3.26-7.26-7.26,0-1.94.76-3.76,2.13-5.13,1.37-1.37,3.18-2.13,5.13-2.13h13.85c-.15.43-.33.83-.56,1.24-1.18,2.22-2.96,3.43-3.93,3.94-3.05,1.67-4.18,5.5-2.52,8.55.15.28.31.54.5.78h-7.35Z"/>
          </g>
          <g>
            <path class="cls-9" d="m33.98,183.91c.04.15.07.3.09.43-.02-.13-.06-.28-.09-.43Z"/>
            <path class="cls-27" d="m101.07,163.36s-.02-.04-.04-.06c0,.02.02.04.04.06-1.39,5.7-6.68,1.94-11.16-.8-6.22-3.8-11.63-7.18-20.94-8.17,2.56.91,3.17,2.07,4.83,3.94-4.18-.8-8.61-.02-12.26,2.18.44-2.15,1.48-4.15,2.74-5.92-17.66,6.02-16.44,30.88,1.54,35.59l-2.8-6.83c2.37,2.43,5.52,4.11,8.83,4.8h0c-3.24,2.24-2.91,8.52-1.61,10.11-.22.56-.43,1.09-.65,1.65h-22.37c-.87-1.61-1.63-3.15-2.24-4.55,2.94,2.41,10.42,4.67,13.78,4.41-4.78-4.2-8.46-9.37-10.83-14.9-.11-.26-.22-.5-.31-.76-.06-.15-.11-.3-.19-.43-.02-.02-.02-.06-.04-.07-2.83-7.15-3.35-14.5-1.72-21.13.04-.19.09-.35.13-.54.02-.04.02-.07.04-.09.83-3.11,2.15-6.05,3.93-8.76.11-.17.22-.33.33-.5.04-.04.06-.09.09-.13,2.35-3.39,5.46-6.37,9.28-8.7h0c-.78,3.05-1.57,6.13-2.35,9.18,4.17-4.04,13.83-9.61,20.76-11.18-2.22,1.96-4.44,3.93-6.65,5.89.04-.02.09-.02.15-.04.7-.19,1.44-.31,2.24-.41.06,0,.11-.02.17-.02.13-.02.28-.04.41-.06,1.26-.15,6.52-.63,12.89,1.8,5.68,2.17,9.68,5.67,11.31,7.89,1.31,1.78,2.02,3.59,2.33,4.61,0,.04.02.06.02.07.04.11.06.2.07.28.04.17.07.3.09.37s.02.11.02.11v.06c.04.22.07.43.09.54.07.24.06.41.06.52Z"/>
            <path class="cls-26" d="m57.12,152.9h0l2.35-9.18h0c-3.81,2.35-6.91,5.31-9.26,8.7-.04.04-.06.09-.09.13-.11.17-.22.33-.33.5-1.78,2.7-3.09,5.65-3.93,8.76-.02.04-.02.07-.02.09-.04.19-.09.35-.13.54-1.63,6.65-1.13,13.98,1.72,21.13.02.02.02.06.04.07.06.15.11.3.17.43.19.43.37.87.56,1.3-1.57-3.41-3.54-25.96,8.92-32.46h0Z"/>
            <path class="cls-9" d="m65.75,152.32c6.74-2.26,19.85-1.87,25.55.17-3.52.48-7.04.94-10.55,1.43,6.92-.81,17.76,5.33,20.33,9.42h0c0-.09.02-.28,0-.48-.02-.13-.06-.31-.09-.54v-.06s0-.04-.02-.11c-.02-.09-.06-.2-.09-.37-.02-.09-.06-.19-.07-.28,0-.02-.02-.06-.02-.07-.31-1.02-1.02-2.83-2.33-4.61-1.65-2.22-5.65-5.72-11.31-7.89-6.37-2.43-11.63-1.94-12.89-1.8-.15.02-.28.04-.41.06-1.04.13-1.93.31-2.56.46-1.48,1.2-4.09,3.44-5.54,4.67h0Z"/>
          </g>
        </g>
      </g>
      <g>
        <path class="cls-2" d="m141.84,171.72c-2.32,5.1-7.54,8.23-12.91,7.83-6.73-.5-10.1-6.27-10.34-6.69.84-2.04,2.18-3.8,3.87-5.13.18-.15.37-.29.56-.43.01,0,.03-.02.05-.03.29-.15.61-.23.95-.23,1.18,0,2.13.95,2.13,2.13,0,1.1-.85,2.01-1.93,2.11,1.29,1.67,3.5,2.77,6,2.77,3.99,0,7.22-2.79,7.22-6.23,0-.29-.02-.58-.08-.87,1.85,1.15,3.41,2.78,4.48,4.77Z"/>
        <path class="cls-2" d="m84.24,172.79c-.25.43-3.62,6.19-10.34,6.69-5.37.4-10.6-2.73-12.92-7.83,1-1.81,2.43-3.31,4.12-4.42t.02-.02c.11-.07.22-.14.33-.2.05-.04.1-.07.16-.1.01,0,.02-.02.04-.02.25-.11.53-.17.82-.17,1.18,0,2.13.96,2.13,2.13s-.95,2.13-2.13,2.13h-.08c1.25,1.84,3.57,3.07,6.22,3.07,3.99,0,7.22-2.79,7.22-6.23,0-.15-.01-.3-.03-.45,1.94,1.35,3.49,3.21,4.44,5.42Z"/>
        <path d="m65.61,166.91c-.06.03-.11.06-.16.1-.01,0-.01-.02,0-.03h.01s.1-.05.15-.07Z"/>
        <path class="cls-2" d="m65.61,166.91c-.06.03-.11.06-.16.1-.11.06-.22.13-.33.2.1-.08.21-.16.33-.23h.01s.1-.05.15-.07Z"/>
        <path d="m123.07,167.27s-.04.02-.05.03h0s.03-.03.05-.03Z"/>
        <path class="cls-2" d="m122.46,167.73c.16-.18.35-.32.56-.43-.19.14-.38.28-.56.43Z"/>
        <path class="cls-2" d="m123.07,167.27s-.04.02-.05.03h0s.03-.03.05-.03Z"/>
      </g>
    </g>
  </g>
</svg>